<svg xmlns="http://www.w3.org/2000/svg" width="5" height="19.874" viewBox="0 0 5 19.874">
  <g id="Menu_Kebab" transform="translate(-9.5 -2.063)">
    <path id="Path_124" data-name="Path 124" d="M14.5,12A2.5,2.5,0,1,1,12,9.5,2.5,2.5,0,0,1,14.5,12Zm-2.765,1.08c0-.828.828.754,0,.754s.777-2.226.777-1.4S11.172,13.5,12,13.5,11.735,13.908,11.735,13.08Z" fill="#727272"/>
    <path id="Path_125" data-name="Path 125" d="M14.5,4.563a2.5,2.5,0,1,1-2.5-2.5A2.5,2.5,0,0,1,14.5,4.563ZM12,6.408c0-.828.6-.828-.231-.828s1.008-.555,1.008.273-2.075-.6-1.247-.6S12,7.236,12,6.408Z" fill="#727272"/>
    <path id="Path_126" data-name="Path 126" d="M14.5,19.437a2.5,2.5,0,1,1-2.5-2.5A2.5,2.5,0,0,1,14.5,19.437Zm-4,0c0-.828,2.328-1.5,1.5-1.5s.6-.828.6,0-.828,1.5,0,1.5S10.5,20.265,10.5,19.437Z" fill="#727272"/>
  </g>
</svg>
