<svg width="20" height="20" viewBox="0 0 20 20" fill="none" xmlns="http://www.w3.org/2000/svg">
<path fill-rule="evenodd" clip-rule="evenodd" d="M17.2575 2.75701C17.4938 2.65749 17.7669 2.71245 17.9464 2.89562C18.1259 3.0788 18.1753 3.35302 18.0709 3.58727L15.4937 9.37467H9.16667C8.8215 9.37467 8.54167 9.65451 8.54167 9.99967C8.54167 10.3448 8.8215 10.6247 9.16667 10.6247H15.4937L18.0709 16.4121C18.1753 16.6463 18.1259 16.9206 17.9464 17.1038C17.7669 17.2869 17.4938 17.3419 17.2575 17.2423L1.42408 10.5758C1.19233 10.4782 1.04167 10.2512 1.04167 9.99967C1.04167 9.74826 1.19233 9.52126 1.42408 9.42367L17.2575 2.75701Z" fill="#9E9E9E"/>
</svg>
